<?xml version="1.0" encoding="utf-8"?>
<!-- Generator: Adobe Illustrator 16.0.0, SVG Export Plug-In . SVG Version: 6.00 Build 0)  -->
<!DOCTYPE svg PUBLIC "-//W3C//DTD SVG 1.1//EN" "http://www.w3.org/Graphics/SVG/1.1/DTD/svg11.dtd">
<svg version="1.1" id="Ebene_1" xmlns="http://www.w3.org/2000/svg" xmlns:xlink="http://www.w3.org/1999/xlink" x="0px" y="0px"
	 width="804px" height="90px" viewBox="0 0 804 90" enable-background="new 0 0 804 90" xml:space="preserve">
<g>
	<path fill="#999933" d="M206.021,29.116c-0.75-1.316-1.756-2.526-2.994-3.598c-0.504-0.426-1.103-0.904-1.783-1.357l-0.005-0.004
		c-2.543-2.035-6.369-3.372-10.234-3.578c-0.361-0.02-0.72-0.029-1.079-0.029c-2.887,0-5.936,0.603-9.322,1.841
		c-2.855,1.037-5.839,2.523-9.387,4.674c-3.071,1.813-5.84,4.049-8.231,6.646c-2.389,2.62-4.411,5.553-6.011,8.721
		c-0.815,1.63-1.488,3.294-1.999,4.949c-0.289,0.944-0.498,1.807-0.641,2.637c-0.039,0.225-0.05,0.424-0.077,0.635
		c-1.054,1.129-2.137,2.105-3.233,2.914c-1.646,1.252-3.371,2.136-5.13,2.629c-1.01,0.287-2.109,0.426-3.359,0.426
		c-0.676,0-1.414-0.04-2.253-0.125c-1.34-0.145-2.708-0.459-4.083-0.93c0.065-0.086,1.478-2.002,1.647-4.575
		c0.326-4.916-3.358-11.669-7.816-14.88c-5.6-4.037-16.214-4.331-16.214-4.331c-0.098,1.401-0.986,10.52,2.474,15.838
		c1.177,1.812,3.875,6.407,10.291,9.397c4.406,2.055,7.334,0.547,8.706-0.554c1.265,0.866,2.602,1.146,4.203,1.47
		c1.313,0.271,2.617,0.414,3.77,0.414c1.227,0,2.294-0.158,3.172-0.473c2.268-0.812,4.001-1.782,5.456-3.059
		c0.391-0.349,0.766-0.664,1.128-0.967c0.406-0.341,0.786-0.67,1.155-1.008c0.094,3.497-0.406,6.776-1.49,9.746
		c-1.135,3.139-2.982,5.994-5.342,8.26c-2.283,2.202-5.204,3.998-8.448,5.192c-2.972,1.097-6.293,1.751-9.872,1.946
		c-0.794,0.043-1.589,0.065-2.384,0.065c-2.693,0-5.286-0.26-7.707-0.77c-3.409-0.718-6.552-1.962-9.342-3.698
		c-2.811-1.734-5.327-4.002-7.479-6.739c-1.983-2.511-3.7-5.465-5.103-8.782c-1.367-3.235-2.065-6.303-2.717-9.42
		c-0.634-3.093-1.168-7.664-1.31-11.055c0.459-0.45,1.117-1.169,1.712-2.103c5.999-9.625-0.785-19.161-6.756-22.305
		c-5.048-2.657-18.736-2.76-18.736-2.76c2.542,2.08,4.014,5.894,4.338,10.237c0.407,5.477,1.608,11.423,7.245,14.767
		c4.344,2.58,9.783,2.712,11.238,2.698c0.03,3.259,0.386,6.64,1.091,10.341c0.695,3.568,1.679,6.934,2.925,10
		c1.394,3.428,3.119,6.494,5.13,9.112c2.203,2.882,4.797,5.282,7.71,7.141c2.902,1.849,6.181,3.187,9.747,3.978
		c2.653,0.586,5.502,0.886,8.467,0.886c0.669,0,1.338-0.017,2.006-0.044c3.75-0.172,7.235-0.822,10.36-1.94
		c3.474-1.237,6.621-3.129,9.098-5.468c2.59-2.423,4.633-5.493,5.908-8.878c1.216-3.202,1.803-6.735,1.744-10.519
		c-0.104-1.533,0.225-3.004,0.751-4.735c0.46-1.461,1.082-2.973,1.9-4.622c1.501-3.009,3.4-5.796,5.647-8.285
		c2.224-2.506,4.81-4.675,7.689-6.447c3.127-1.996,6.068-3.547,8.99-4.74c3.42-1.381,6.499-2.052,9.413-2.052l0.364,0.004
		c1.095,0.005,2.19,0.138,3.265,0.37c-1.45,0.05-2.95,0.312-4.473,0.804c-2.775,0.895-5.498,2.383-8.093,4.425
		c-2.639,2.104-4.694,4.446-6.113,6.973c-1.557,3.057-2.497,5.916-2.875,8.74c-0.295,2.255-0.254,4.313,0.115,6.155
		c-0.316-0.068-0.718-0.17-1.202-0.313c-1.303-0.394-5.405,0.981-7.62,10.099c-2.214,9.119,7.62,17.392,7.62,17.392
		c-1.824-5.402,7.06-13.103,7.033-20.125c-0.009-2.688-3.484-5.32-4.656-6.479c-0.099-0.688-0.152-1.414-0.156-2.178
		c-0.015-1.417,0.129-2.858,0.427-4.283c0.592-2.785,1.654-5.56,3.066-8.016c1.307-2.173,3.209-4.316,5.652-6.371
		c2.39-1.985,4.869-3.441,7.368-4.329c1.613-0.568,3.194-0.855,4.7-0.855c1.246,0,2.418,0.201,3.49,0.6
		c1.101,0.397,2.239,1.087,3.582,2.169c1.138,0.94,2.07,2.007,2.774,3.174c1.419,2.29,1.954,5.201,1.506,8.198
		c-0.429,2.877-1.552,5.643-3.248,7.998l-0.18,0.249l0.606,0.449l0.187-0.242c1.855-2.406,3.126-5.271,3.676-8.282
		C208.007,34.917,207.513,31.701,206.021,29.116z"/>
	<path fill="#1E223D" d="M202.82,42.072c-3.787-2.063-14.115-2.215-19.457,8.854c-3.761,7.802-4.511,23.188,2.523,26.052
		c7.033,2.865,17.714-8.076,20.58-14.85C209.331,55.359,208.55,45.198,202.82,42.072z"/>
	<path fill="#999933" d="M716.064,13.181c-5.972,3.144-12.757,12.68-6.757,22.305c0.745,1.173,1.598,2.013,2.02,2.396
		c-0.161,3.366-0.687,7.771-1.298,10.761c-0.654,3.121-1.355,6.189-2.717,9.42c-1.406,3.321-3.123,6.275-5.104,8.783
		c-2.156,2.739-4.672,5.006-7.481,6.74c-2.787,1.736-5.931,2.98-9.343,3.697c-2.42,0.51-5.012,0.77-7.705,0.77
		c-0.795,0-1.59-0.021-2.383-0.064c-3.58-0.196-6.901-0.852-9.873-1.947c-3.244-1.193-6.166-2.99-8.448-5.191
		c-2.361-2.267-4.209-5.123-5.345-8.261c-1.085-2.978-1.585-6.257-1.489-9.747c0.369,0.338,0.748,0.665,1.153,1.006
		c0.361,0.305,0.738,0.621,1.133,0.973c1.451,1.271,3.185,2.242,5.453,3.056c0.877,0.313,1.945,0.474,3.172,0.474
		c1.154,0,2.457-0.145,3.771-0.414c1.621-0.328,2.971-0.611,4.248-1.502c1.354,1.104,4.295,2.659,8.742,0.584
		c6.416-2.988,9.114-7.586,10.291-9.396c3.459-5.318,2.571-14.437,2.475-15.838c0,0-10.615,0.294-16.215,4.331
		c-4.457,3.211-8.142,9.964-7.816,14.88c0.165,2.496,1.493,4.363,1.634,4.555c-1.396,0.483-2.788,0.803-4.146,0.95
		c-0.842,0.085-1.58,0.125-2.256,0.125c-1.25,0-2.351-0.14-3.363-0.426c-1.756-0.494-3.481-1.38-5.129-2.632
		c-1.096-0.808-2.179-1.783-3.232-2.912c-0.025-0.211-0.036-0.41-0.075-0.633c-0.144-0.836-0.353-1.699-0.642-2.639
		c-0.512-1.66-1.186-3.326-2-4.949c-1.602-3.171-3.625-6.104-6.01-8.721c-2.393-2.598-5.162-4.833-8.229-6.644
		c-3.549-2.152-6.532-3.638-9.389-4.676c-3.387-1.238-6.436-1.841-9.324-1.841c-0.358,0-0.719,0.01-1.077,0.029
		c-3.867,0.206-7.691,1.543-10.234,3.578l-0.002,0.001c-0.683,0.454-1.283,0.935-1.789,1.362c-1.234,1.068-2.242,2.278-2.99,3.595
		c-1.494,2.586-1.987,5.802-1.395,9.056c0.555,3.016,1.825,5.88,3.678,8.282l0.188,0.24l0.605-0.447l-0.178-0.249
		c-1.699-2.358-2.822-5.123-3.25-7.998c-0.447-2.999,0.088-5.912,1.508-8.202c0.703-1.166,1.637-2.231,2.77-3.167
		c1.345-1.083,2.482-1.772,3.589-2.173c1.067-0.397,2.241-0.599,3.487-0.599c1.506,0,3.086,0.287,4.699,0.854
		c2.498,0.89,4.977,2.346,7.367,4.33c2.442,2.054,4.346,4.198,5.649,6.367c1.416,2.461,2.478,5.234,3.068,8.021
		c0.299,1.417,0.441,2.858,0.43,4.286c-0.005,0.765-0.06,1.488-0.158,2.175c-1.171,1.159-4.646,3.791-4.655,6.479
		c-0.027,7.022,8.856,14.723,7.03,20.125c0,0,9.837-8.272,7.621-17.392c-2.213-9.117-6.315-10.492-7.621-10.099
		c-0.482,0.146-0.885,0.245-1.199,0.313c0.369-1.842,0.411-3.9,0.115-6.156c-0.379-2.828-1.319-5.686-2.881-8.749
		c-1.416-2.52-3.471-4.862-6.11-6.964c-2.591-2.04-5.312-3.528-8.093-4.424c-1.521-0.491-3.021-0.754-4.472-0.804
		c1.077-0.232,2.173-0.365,3.271-0.37l0.358-0.004c2.914,0,5.994,0.671,9.41,2.052c2.92,1.192,5.861,2.743,8.998,4.742
		c2.877,1.771,5.461,3.94,7.686,6.447c2.246,2.487,4.146,5.274,5.646,8.282c0.822,1.654,1.443,3.167,1.9,4.621
		c0.455,1.495,0.86,3.104,0.752,4.755c-0.06,3.768,0.528,7.3,1.746,10.5c1.272,3.386,3.315,6.455,5.905,8.878
		c2.479,2.34,5.625,4.231,9.101,5.469c3.123,1.118,6.608,1.771,10.36,1.94c0.668,0.027,1.336,0.044,2.006,0.044
		c2.966,0,5.812-0.3,8.468-0.886c3.567-0.793,6.85-2.131,9.746-3.978c2.916-1.856,5.51-4.259,7.711-7.139
		c2.018-2.627,3.743-5.694,5.133-9.114c1.246-3.068,2.229-6.436,2.924-10.002c0.7-3.657,1.056-7.018,1.084-10.338
		c1.812-0.013,6.854-0.279,10.93-2.699c5.638-3.344,6.836-9.29,7.244-14.767c0.324-4.344,1.795-8.157,4.338-10.237
		C734.801,10.421,721.113,10.523,716.064,13.181z"/>
	<path fill="#1E223D" d="M619.635,53.617c-3.719-5.877-10.01-11.861-17.715-8.863c-9.377,3.645-9.627,16.662-2.701,24.079
		c8.043,8.615,16.51,11.947,22.24,8.615C627.191,74.114,622.598,58.293,619.635,53.617z"/>
	<ellipse fill="#787B8B" cx="606.4" cy="47.474" rx="3.094" ry="1.965"/>
	
		<ellipse transform="matrix(-0.2238 -0.9746 0.9746 -0.2238 198.4548 248.0825)" fill="#787B8B" cx="198.013" cy="45.017" rx="2.712" ry="3.748"/>
	<g>
		<path fill="#999933" d="M232.672,34.484c0-3.76-4.042-1.927-4.042-3.242c0-0.376,0.188-0.611,0.94-0.611
			c2.396,0,4.652,0.094,6.532,0.094s4.136-0.094,6.533-0.094c0.752,0,0.94,0.235,0.94,0.611c0,1.315-4.042-0.518-4.042,3.242v24.345
			c0,3.76,4.042,1.927,4.042,3.243c0,0.376-0.188,0.609-0.94,0.609c-2.397,0-4.653-0.094-6.533-0.094s-4.136,0.094-6.532,0.094
			c-0.752,0-0.94-0.233-0.94-0.609c0-1.316,4.042,0.517,4.042-3.243V34.484z"/>
		<path fill="#999933" d="M249.591,34.484c0-3.76-4.042-1.927-4.042-3.242c0-0.376,0.188-0.611,0.939-0.611
			c2.397,0,4.653,0.094,6.533,0.094s4.136-0.094,6.533-0.094c0.752,0,0.94,0.235,0.94,0.611c0,1.315-4.042-0.518-4.042,3.242v23.78
			c0,2.162,0.846,3.291,3.854,3.291c5.546,0,9.729-4.418,11.467-9.869c0.282-0.894,0.329-1.315,0.752-1.315
			c0.329,0,0.47,0.233,0.47,0.517s-0.094,0.846-0.188,1.362l-2.067,10.435c-4.935-0.048-11.186-0.095-17.718-0.095
			c-1.88,0-4.136,0.095-6.533,0.095c-0.752,0-0.939-0.234-0.939-0.61c0-1.316,4.042,0.517,4.042-3.243V34.484H249.591z"/>
		<path fill="#999933" d="M302.794,58.829c0,3.76,4.042,1.927,4.042,3.243c0,0.376-0.188,0.609-0.94,0.609
			c-2.397,0-4.653-0.094-6.533-0.094c-1.88,0-4.136,0.094-6.532,0.094c-0.752,0-0.94-0.233-0.94-0.609
			c0-1.316,4.042,0.517,4.042-3.243V34.484c0-3.76-4.042-1.927-4.042-3.242c0-0.376,0.188-0.611,0.94-0.611
			c2.396,0,4.652,0.094,6.532,0.094c2.585,0,4.794-0.094,6.862-0.094c8.789,0,13.112,4.042,13.112,8.835
			c0,5.358-4.042,8.931-13.018,8.931h-3.525V58.829z M302.794,47.268h2.444c4.888,0,7.237-2.255,7.237-7.849
			c0-4.935-2.35-7.66-7.237-7.66h-2.444V47.268z"/>
		<path fill="#999933" d="M324.272,50.559c-0.894,2.537-1.975,4.651-1.975,7.002c0,4.229,3.901,3.947,3.901,4.746
			c0,0.235-0.094,0.377-0.423,0.377c-1.691,0-3.524-0.095-5.357-0.095s-3.666,0.095-5.499,0.095c-0.376,0-0.517-0.142-0.517-0.424
			c0-0.328,0.188-0.47,0.986-0.658c3.149-0.703,5.312-4.699,7.002-9.117l5.97-15.461c0.188-0.517,0.329-0.846,0.329-1.363
			c0-0.986-1.41-1.222-1.41-1.598s0.939-0.423,3.102-2.632c2.115-2.162,1.975-2.772,2.397-2.772c0.234,0,0.47,0.563,0.705,1.175
			l11.89,28.95c1.551,3.76,3.995,2.679,3.995,3.523c0,0.235-0.141,0.377-0.47,0.377c-2.162,0-4.418-0.095-6.627-0.095
			c-2.257,0-4.513,0.095-6.626,0.095c-0.424,0-0.564-0.188-0.564-0.471c0-0.939,3.29,0.094,3.29-2.49
			c0-1.505-0.846-2.772-3.384-9.164H324.272z M334.518,49.712l-5.169-12.643l-4.794,12.643H334.518z"/>
		<path fill="#999933" d="M354.635,34.484c0-3.76-4.042-1.927-4.042-3.242c0-0.376,0.188-0.611,0.94-0.611
			c2.396,0,4.651,0.094,6.532,0.094c1.88,0,4.136-0.094,6.532-0.094c0.752,0,0.94,0.235,0.94,0.611c0,1.315-4.042-0.518-4.042,3.242
			v23.78c0,2.162,0.846,3.291,3.854,3.291c5.546,0,9.729-4.418,11.468-9.869c0.281-0.894,0.329-1.315,0.752-1.315
			c0.329,0,0.47,0.233,0.47,0.517s-0.094,0.846-0.188,1.362l-2.068,10.435c-4.936-0.048-11.186-0.095-17.718-0.095
			c-1.88,0-4.137,0.095-6.532,0.095c-0.752,0-0.94-0.234-0.94-0.61c0-1.316,4.042,0.517,4.042-3.243V34.484L354.635,34.484z"/>
		<path fill="#999933" d="M387.439,50.559c-0.894,2.537-1.975,4.651-1.975,7.002c0,4.229,3.9,3.947,3.9,4.746
			c0,0.235-0.094,0.377-0.423,0.377c-1.691,0-3.524-0.095-5.357-0.095s-3.666,0.095-5.499,0.095c-0.376,0-0.517-0.142-0.517-0.424
			c0-0.328,0.188-0.47,0.986-0.658c3.149-0.703,5.312-4.699,7.002-9.117l5.97-15.461c0.188-0.517,0.329-0.846,0.329-1.363
			c0-0.986-1.41-1.222-1.41-1.598s0.939-0.423,3.102-2.632c2.115-2.162,1.976-2.772,2.397-2.772c0.234,0,0.47,0.563,0.705,1.175
			l11.89,28.95c1.551,3.76,3.995,2.679,3.995,3.523c0,0.235-0.142,0.377-0.47,0.377c-2.162,0-4.418-0.095-6.628-0.095
			c-2.256,0-4.512,0.095-6.627,0.095c-0.423,0-0.562-0.188-0.562-0.471c0-0.939,3.29,0.094,3.29-2.49
			c0-1.505-0.846-2.772-3.384-9.164H387.439z M397.686,49.712l-5.17-12.643l-4.794,12.643H397.686z"/>
		<path fill="#999933" d="M439.138,59.863c-2.256,1.408-5.641,3.478-10.998,3.478c-9.963,0-17.575-7.521-17.575-16.684
			c0-9.165,7.612-16.685,17.436-16.685c5.029,0,8.554,2.444,9.962,2.444c1.976,0,1.082-2.162,1.928-2.162
			c0.375,0,0.564,0.188,0.564,0.517v12.454c0,0.377-0.236,0.564-0.424,0.564c-0.752,0-0.188-0.893-1.316-3.947
			c-1.973-5.546-5.498-8.742-10.574-8.742c-4.698,0-9.868,3.854-9.868,15.557c0,11.702,5.17,15.556,9.868,15.556
			c4.042,0,7.332-2.35,7.332-6.768v-2.633c0-4.418-4.041-2.584-4.041-3.899c0-0.376,0.188-0.611,0.939-0.611
			c2.396,0,4.652,0.095,6.344,0.095c1.693,0,3.949-0.095,6.346-0.095c0.753,0,0.939,0.235,0.939,0.611
			c0,1.315-4.041-0.519-4.041,3.241v10.435h-1.41L439.138,59.863z"/>
		<path fill="#999933" d="M450.609,34.484c0-3.76-4.043-1.927-4.043-3.242c0-0.376,0.188-0.611,0.94-0.611
			c2.397,0,4.653,0.094,6.532,0.094c5.828,0,11.373-0.047,16.92-0.094l2.35,8.977c0.188,0.705,0.281,1.081,0.281,1.222
			c0,0.235-0.141,0.376-0.469,0.376c-0.424,0-0.377-0.799-2.209-3.854c-2.209-3.666-5.264-5.593-10.904-5.593h-2.537v13.535h1.175
			c3.291,0,5.688-2.443,5.875-5.828c0.047-0.939,0.188-1.175,0.657-1.175c0.281,0,0.472,0.235,0.472,0.658V53.33
			c0,0.423-0.189,0.658-0.472,0.658c-0.471,0-0.61-0.235-0.657-1.176c-0.188-4.183-2.584-6.392-5.875-6.392h-1.175v11.843
			c0,2.162,0.847,3.291,3.854,3.291c7.332,0,11.279-5.218,12.736-9.869c0.28-0.894,0.327-1.315,0.752-1.315
			c0.327,0,0.471,0.233,0.471,0.517s-0.096,0.846-0.189,1.362l-2.065,10.435c-6.205-0.048-12.455-0.095-18.988-0.095
			c-1.879,0-4.135,0.095-6.532,0.095c-0.752,0-0.94-0.234-0.94-0.61c0-1.316,4.043,0.517,4.043-3.243V34.484H450.609z"/>
		<path fill="#999933" d="M487.596,31.853c-9.305,2.538-9.774,9.775-10.854,9.775c-0.234,0-0.424-0.141-0.424-0.47
			c0-0.188,0.094-0.94,0.235-1.692l1.551-8.6c0.095-0.705,0.281-0.894,0.517-0.894s0.424,0.142,0.658,0.329
			c0.235,0.141,0.563,0.423,1.223,0.423h21.055c0.658,0,0.986-0.282,1.224-0.423c0.233-0.188,0.422-0.329,0.655-0.329
			c0.236,0,0.425,0.188,0.519,0.894l1.551,8.6c0.141,0.752,0.234,1.504,0.234,1.692c0,0.329-0.188,0.47-0.422,0.47
			c-1.082,0-1.552-7.237-10.857-9.775v26.038c0,3.008,1.457,3.664,3.76,3.664c0.564,0,0.849,0.143,0.849,0.611
			c0,0.376-0.236,0.518-0.753,0.518c-2.68,0-5.075-0.095-7.284-0.095s-4.605,0.095-7.285,0.095c-0.517,0-0.752-0.142-0.752-0.518
			c0-0.471,0.283-0.611,0.846-0.611c2.303,0,3.76-0.656,3.76-3.664V31.853H487.596z"/>
		<path fill="#999933" d="M519.557,31.853c-9.307,2.538-9.774,9.775-10.856,9.775c-0.234,0-0.422-0.141-0.422-0.47
			c0-0.188,0.094-0.94,0.233-1.692l1.552-8.6c0.094-0.705,0.282-0.894,0.518-0.894s0.422,0.142,0.658,0.329
			c0.233,0.141,0.563,0.423,1.221,0.423h21.055c0.658,0,0.988-0.282,1.224-0.423c0.233-0.188,0.424-0.329,0.658-0.329
			c0.233,0,0.422,0.188,0.518,0.894l1.551,8.6c0.142,0.752,0.234,1.504,0.234,1.692c0,0.329-0.188,0.47-0.424,0.47
			c-1.08,0-1.552-7.237-10.855-9.775v26.038c0,3.008,1.457,3.664,3.76,3.664c0.564,0,0.847,0.143,0.847,0.611
			c0,0.376-0.234,0.518-0.752,0.518c-2.679,0-5.076-0.095-7.285-0.095s-4.605,0.095-7.283,0.095c-0.518,0-0.752-0.142-0.752-0.518
			c0-0.471,0.281-0.611,0.846-0.611c2.304,0,3.761-0.656,3.761-3.664V31.853H519.557z"/>
		<path fill="#999933" d="M556.967,29.973c10.435,0,17.389,7.896,17.389,16.685c0,8.787-6.954,16.684-17.389,16.684
			c-10.434,0-17.389-7.896-17.389-16.684C539.578,37.868,546.533,29.973,556.967,29.973z M556.967,62.213
			c5.922,0,9.683-5.64,9.683-15.556c0-9.917-3.761-15.557-9.683-15.557s-9.682,5.64-9.682,15.557
			C547.285,56.573,551.045,62.213,556.967,62.213z"/>
	</g>
</g>
</svg>
